<svg width="255" height="255" viewBox="0 0 255 255" fill="none" xmlns="http://www.w3.org/2000/svg">
<path d="M127.8 254.3C197.94 254.3 254.8 197.44 254.8 127.3C254.8 57.1596 197.94 0.299805 127.8 0.299805C57.6599 0.299805 0.800049 57.1596 0.800049 127.3C0.800049 197.44 57.6599 254.3 127.8 254.3Z" fill="#E84142"/>
<path d="M172.6 130.6C177 123 184.1 123 188.5 130.6L215.9 178.7C220.3 186.3 216.7 192.5 207.9 192.5H152.7C144 192.5 140.4 186.3 144.7 178.7L172.6 130.6ZM119.6 37.9998C124 30.3998 131 30.3998 135.4 37.9998L141.5 48.9998L155.9 74.2998C159.4 81.4998 159.4 89.9998 155.9 97.1998L107.6 180.9C103.2 187.7 95.9002 192 87.8002 192.5H47.7002C38.9002 192.5 35.3002 186.4 39.7002 178.7L119.6 37.9998Z" fill="white"/>
</svg>
