<svg width="509" height="509" viewBox="0 0 509 509" fill="none" xmlns="http://www.w3.org/2000/svg">
<path d="M254.8 0.399902C395.2 0.399902 509 114.2 509 254.6C509 395 395.2 508.7 254.9 508.7C114.5 508.7 0.800115 394.9 0.800115 254.6C0.700115 114.2 114.5 0.399902 254.8 0.399902Z" fill="#8247E5"/>
<mask id="mask0_66_18" style="mask-type:luminance" maskUnits="userSpaceOnUse" x="86" y="110" width="334" height="293">
<path d="M419.6 110.3H86.5V402.2H419.6V110.3Z" fill="white"/>
</mask>
<g mask="url(#mask0_66_18)">
<path d="M338.1 199.2C332 195.7 324.2 195.7 317.3 199.2L268.7 228L235.7 246.3L188 275C181.9 278.5 174.1 278.5 167.2 275L129.9 252.3C123.8 248.8 119.5 241.8 119.5 234V190.4C119.5 183.4 123 176.5 129.9 172.1L167.2 150.3C173.3 146.8 181.1 146.8 188 150.3L225.3 173C231.4 176.5 235.7 183.5 235.7 191.3V220.1L268.7 200.9V171.3C268.7 164.3 265.2 157.4 258.3 153L188.9 112C182.8 108.5 175 108.5 168.1 112L97.0001 153.9C90.1001 157.4 86.6001 164.4 86.6001 171.3V253.2C86.6001 260.2 90.1001 267.1 97.0001 271.5L167.3 312.5C173.4 316 181.2 316 188.1 312.5L235.8 284.6L268.8 265.4L316.5 237.5C322.6 234 330.4 234 337.3 237.5L374.6 259.3C380.7 262.8 385 269.8 385 277.6V321.2C385 328.2 381.5 335.1 374.6 339.5L338.2 361.3C332.1 364.8 324.3 364.8 317.4 361.3L280 339.5C273.9 336 269.6 329 269.6 321.2V293.3L236.6 312.5V341.3C236.6 348.3 240.1 355.2 247 359.6L317.3 400.6C323.4 404.1 331.2 404.1 338.1 400.6L408.4 359.6C414.5 356.1 418.8 349.1 418.8 341.3V258.5C418.8 251.5 415.3 244.6 408.4 240.2L338.1 199.2Z" fill="white"/>
</g>
</svg>
