<svg width="523" height="501" viewBox="0 0 523 501" fill="none" xmlns="http://www.w3.org/2000/svg">
<path d="M261.8 500.7C406 500.7 522.8 388.7 522.8 250.6C522.8 112.5 406 0.5 261.8 0.5C117.6 0.5 0.800049 112.5 0.800049 250.6C0.800049 388.7 117.7 500.7 261.8 500.7Z" fill="#FF060A"/>
<path d="M408.6 205.7C394.2 192.9 374.2 173.4 358 159.6L357 159C355.4 157.8 353.6 156.8 351.7 156.1C312.5 149.1 130.1 116.4 126.6 116.8C125.6 116.9 124.6 117.3 123.8 117.8L122.9 118.5C121.8 119.6 120.9 120.9 120.4 122.4L120.2 123V126.3V126.8C140.7 181.6 221.8 361 237.8 403.2C238.8 406.1 240.6 411.5 244 411.8H244.8C246.6 411.8 254.4 401.9 254.4 401.9C254.4 401.9 393.7 240.1 407.8 222.9C409.6 220.8 411.2 218.5 412.6 216.1C413 214.2 412.8 212.3 412.1 210.5C411.4 208.7 410.1 207 408.6 205.7ZM290 224.6L349.4 177.4L384.3 208.2L290 224.6ZM266.9 221.5L164.6 141.1L330.2 170.4L266.9 221.5ZM276.1 242.5L380.8 226.3L261.1 364.6L276.1 242.5ZM150.7 149.2L258.4 236.7L242.8 364.7L150.7 149.2Z" fill="white"/>
</svg>
